# xmcd
#
# Track frame offsets:
#	150
#	42787
#	67575
#	101093
#	148427
#	204773
#	243307
#	290411
#
# Disc length: 4428 seconds
#
# Revision: 1
# Processed by: cddbd v1.5.2PL0 Copyright (c) Steve Scherf et al.
# Submitted via: audiograbber 1.83.01
#
DISCID=6e114a08
DTITLE=George Benson - The Album CD2
DYEAR=2016
DGENRE=Soul
TTITLE0=Fed Up (Instrumental Version)
TTITLE1=Finger in it
TTITLE2=Smokin' Cheeba Cheeba
TTITLE3=Invitation
TTITLE4=All Blues
TTITLE5=All the things you are
TTITLE6=Oleo
TTITLE7=Fed Up
EXTD=
EXTT0=
EXTT1=
EXTT2=
EXTT3=
EXTT4=
EXTT5=
EXTT6=
EXTT7=
PLAYORDER=
